<svg version="1.1" id="Layer_1" xmlns="http://www.w3.org/2000/svg" xmlns:xlink="http://www.w3.org/1999/xlink" x="0px" y="0px"
	 width="100%" viewBox="0 0 94 90" enable-background="new 0 0 94 90" xml:space="preserve">
<path fill="#FEFEFE" opacity="1.000000" stroke="none" 
	d="
M50.000000,91.000000 
	C33.333332,91.000000 17.166666,91.000000 1.000000,91.000000 
	C1.000000,61.000000 1.000000,31.000000 1.000000,1.000000 
	C32.333332,1.000000 63.666668,1.000000 95.000000,1.000000 
	C95.000000,31.000000 95.000000,61.000000 95.000000,91.000000 
	C80.166664,91.000000 65.333336,91.000000 50.000000,91.000000 
M37.943195,30.396774 
	C37.601330,30.248556 37.259460,30.100340 36.378746,29.624115 
	C32.871094,28.117971 32.252071,28.704515 31.527794,33.832790 
	C31.527794,33.832790 31.095690,33.846478 30.576902,33.438145 
	C25.192860,33.061119 26.786179,37.024010 26.684494,40.056480 
	C22.089087,40.453072 21.765049,42.689915 23.630424,46.375774 
	C26.861652,52.760464 29.692663,59.346622 32.866455,65.761742 
	C36.335876,72.774391 40.808651,75.634476 46.332687,74.703270 
	C54.506058,73.325462 61.276466,67.948730 61.163975,60.775784 
	C61.065800,54.516037 62.790943,49.259632 64.943352,43.729057 
	C65.619041,41.992889 64.529045,39.569534 64.247223,37.460716 
	C62.335426,38.689201 59.884193,39.529053 58.648304,41.244495 
	C57.101543,43.391445 56.553288,46.257767 54.999454,50.313095 
	C51.787880,43.620106 49.104523,38.377899 46.737881,32.996410 
	C44.416138,27.717010 42.260826,27.046751 38.516460,30.961592 
	C38.516460,30.961592 38.048588,30.916388 38.004871,30.972876 
	C38.004871,30.972876 38.076031,30.979071 37.943195,30.396774 
z"/>
<path fill="#F9DD7A" opacity="1.000000" stroke="none" 
	d="
M38.986397,30.971754 
	C42.260826,27.046751 44.416138,27.717010 46.737881,32.996410 
	C49.104523,38.377899 51.787880,43.620106 54.999454,50.313095 
	C56.553288,46.257767 57.101543,43.391445 58.648304,41.244495 
	C59.884193,39.529053 62.335426,38.689201 64.247223,37.460716 
	C64.529045,39.569534 65.619041,41.992889 64.943352,43.729057 
	C62.790943,49.259632 61.065800,54.516037 61.163975,60.775784 
	C61.276466,67.948730 54.506058,73.325462 46.332687,74.703270 
	C40.808651,75.634476 36.335876,72.774391 32.866455,65.761742 
	C29.692663,59.346622 26.861652,52.760464 23.630424,46.375774 
	C21.765049,42.689915 22.089087,40.453072 26.684494,40.056480 
	C26.786179,37.024010 25.192860,33.061119 30.661869,33.802433 
	C31.155167,34.453636 31.563498,34.740551 31.977581,35.401016 
	C33.256733,38.696472 34.530128,41.618378 35.803528,44.540283 
	C36.371235,44.234722 36.938942,43.929157 37.506653,43.623596 
	C35.679340,40.742851 33.852032,37.862110 32.012672,34.688637 
	C31.986942,34.201077 31.973263,34.006237 31.959583,33.811401 
	C32.252071,28.704515 32.871094,28.117971 36.772491,30.030216 
	C37.469501,30.617233 37.772766,30.798153 38.076031,30.979071 
	C38.076031,30.979071 38.004871,30.972876 38.001816,31.343586 
	C40.379074,37.462963 42.759384,43.211632 45.139698,48.960297 
	C45.679493,48.712879 46.219284,48.465458 46.759079,48.218040 
	C44.168186,42.469276 41.577290,36.720516 38.986397,30.971754 
M37.619884,46.519798 
	C37.619884,46.519798 37.453739,46.420380 37.453739,46.420380 
	C37.453739,46.420380 37.474865,46.621128 37.619884,46.519798 
M38.520996,48.374863 
	C38.520996,48.374863 38.423332,48.552540 38.423332,48.552540 
	C38.423332,48.552540 38.615116,48.525131 38.520996,48.374863 
M39.622089,50.515614 
	C39.622089,50.515614 39.449585,50.413685 39.449585,50.413685 
	C39.449585,50.413685 39.472290,50.618614 39.622089,50.515614 
z"/>
<path fill="#E7B768" opacity="1.000000" stroke="none" 
	d="
M38.751427,30.966673 
	C41.577290,36.720516 44.168186,42.469276 46.759079,48.218040 
	C46.219284,48.465458 45.679493,48.712879 45.139698,48.960297 
	C42.759384,43.211632 40.379074,37.462963 38.023674,31.315342 
	C38.048588,30.916388 38.516460,30.961592 38.751427,30.966673 
z"/>
<path fill="#E8B767" opacity="1.000000" stroke="none" 
	d="
M31.743689,33.822098 
	C31.973263,34.006237 31.986942,34.201077 31.998934,34.699425 
	C31.997246,35.002937 31.971830,35.027462 31.971830,35.027462 
	C31.563498,34.740551 31.155167,34.453636 30.921263,34.006599 
	C31.095690,33.846478 31.527794,33.832790 31.743689,33.822098 
z"/>
<path fill="#E7B768" opacity="1.000000" stroke="none" 
	d="
M38.009613,30.687923 
	C37.772766,30.798153 37.469501,30.617233 37.041916,30.194218 
	C37.259460,30.100340 37.601330,30.248556 38.009613,30.687923 
z"/>
<path fill="#E8B767" opacity="1.000000" stroke="none" 
	d="
M32.010986,34.992149 
	C33.852032,37.862110 35.679340,40.742851 37.506653,43.623596 
	C36.938942,43.929157 36.371235,44.234722 35.803528,44.540283 
	C34.530128,41.618378 33.256733,38.696472 31.977581,35.401016 
	C31.971830,35.027462 31.997246,35.002937 32.010986,34.992149 
z"/>
<path fill="#E8B767" opacity="1.000000" stroke="none" 
	d="
M37.547375,46.570465 
	C37.474865,46.621128 37.453739,46.420380 37.453739,46.420380 
	C37.453739,46.420380 37.619884,46.519798 37.547375,46.570465 
z"/>
<path fill="#E8B767" opacity="1.000000" stroke="none" 
	d="
M38.568054,48.449997 
	C38.615116,48.525131 38.423332,48.552540 38.423332,48.552540 
	C38.423332,48.552540 38.520996,48.374863 38.568054,48.449997 
z"/>
<path fill="#E8B767" opacity="1.000000" stroke="none" 
	d="
M39.547188,50.567116 
	C39.472290,50.618614 39.449585,50.413685 39.449585,50.413685 
	C39.449585,50.413685 39.622089,50.515614 39.547188,50.567116 
z"/>
</svg>